<svg xmlns="http://www.w3.org/2000/svg" viewBox="0 0 128 128" aria-hidden="true" focusable="false">
  <path fill="#3DDC84" d="M24.2 44h79.6v57.4a9.7 9.7 0 0 1-9.7 9.6H34a9.7 9.7 0 0 1-9.7-9.6Zm66.4-14.8 8.7-12.5a2.4 2.4 0 1 0-3.9-2.7L86.3 27a48.4 48.4 0 0 0-44.6 0l-9.1-13a2.4 2.4 0 1 0-3.9 2.7l8.8 12.5A39.7 39.7 0 0 0 24.2 44h79.6a39.7 39.7 0 0 0-13.2-14.8ZM50.7 27.7a3.9 3.9 0 1 1-3.8 3.9 3.9 3.9 0 0 1 3.8-3.9Zm26.6 0a3.9 3.9 0 1 1-3.8 3.9 3.9 3.9 0 0 1 3.8-3.9ZM16 47.1a9.6 9.6 0 0 0-9.6 9.6v29.4a9.6 9.6 0 1 0 19.2 0V56.7a9.6 9.6 0 0 0-9.6-9.6Zm96 0a9.6 9.6 0 0 0-9.6 9.6v29.4a9.6 9.6 0 1 0 19.2 0V56.7a9.6 9.6 0 0 0-9.6-9.6ZM42.4 111h12.2v17.4a9.6 9.6 0 1 1-19.2 0v-17.4Zm31 0h12.2v17.4a9.6 9.6 0 1 1-19.2 0v-17.4Z"/>
</svg>
