<svg xmlns="http://www.w3.org/2000/svg" viewBox="0 0 16 16" aria-hidden="true" focusable="false">
  <path fill="currentColor" d="M5.1 2.3a.45.45 0 0 1 .63.16l.7 1.08a6 6 0 0 1 3.12 0l.7-1.08a.45.45 0 1 1 .75.48l-.62.97c1.44.67 2.31 1.9 2.31 3.4v3.02A2.1 2.1 0 0 1 10.6 12.5H5.4a2.1 2.1 0 0 1-2.1-2.1V7.34c0-1.5.87-2.72 2.3-3.39L4.99 3a.45.45 0 0 1 .12-.63ZM6.25 7.5a.62.62 0 1 0 0-1.24.62.62 0 0 0 0 1.24Zm3.5 0a.62.62 0 1 0 0-1.24.62.62 0 0 0 0 1.24Zm-5.1 1.05v1.85c0 .41.34.75.75.75h5.2c.41 0 .75-.34.75-.75V8.55H4.65Z"/>
</svg>
