<svg xmlns="http://www.w3.org/2000/svg" width="16" height="16" fill="currentColor" viewBox="0 0 16 16" aria-hidden="true" focusable="false">
  <path d="M0 8a8 8 0 1 1 16 0A8 8 0 0 1 0 8m7.5 6.923v-2.69c-.203.012-.4.027-.585.046-1.95.188-3.312.645-4.172 1.002a7 7 0 0 0 4.757 1.642m1 0a7 7 0 0 0 4.757-1.642c-.86-.357-2.222-.814-4.172-1.002a12 12 0 0 0-.585-.046zM8.5 11.187v3.69c.357-.017.706-.061 1.043-.128.015-.79-.118-1.98-.593-3.147a11 11 0 0 0-.45-.98zm-1 0q-.204.43-.45.98c-.475 1.167-.608 2.356-.593 3.147.337.067.686.11 1.043.128zm-1.665-.662a13 13 0 0 1 .532-1.05 14 14 0 0 1-.632-.116 8 8 0 0 0-.573-.099 7 7 0 0 0-2.95.715 6.96 6.96 0 0 0-.882 2.376c.9-.385 2.27-.839 4.093-1.028.256-.026.514-.05.774-.07m4.33 0q.39.032.774.07c1.823.189 3.192.643 4.093 1.028a6.96 6.96 0 0 0-.882-2.376 7 7 0 0 0-2.95-.715 8 8 0 0 0-.573.1q-.31.055-.632.115.293.535.531 1.05m-2.667.981q.245.008.502.008.257 0 .502-.008a10 10 0 0 0-.452-.965 9 9 0 0 0-.1-.195 9 9 0 0 0-.1.195 10 10 0 0 0-.452.965m.012-1.902a13 13 0 0 1 .95 0 12.5 12.5 0 0 0-.57-1.167 10 10 0 0 0-.38.68q-.16.33-.3.487m1.056-1.167q.324.668.57 1.167.302.04.592.104q.319.07.62.14a13 13 0 0 0-.88-1.228 7 7 0 0 0-.902-.053m1.32-1.44c-.092-.414-.2-.757-.318-1.008-.093-.196-.193-.34-.287-.427a.5.5 0 0 0-.17-.111c-.042-.014-.098-.016-.168.02a.5.5 0 0 0-.154.12c-.094.088-.194.232-.287.428-.118.25-.226.593-.318 1.006q.34-.035.704-.035c.24 0 .474.012.704.036m-.22.455a13 13 0 0 0-.968-.037q-.474 0-.968.037a12 12 0 0 1-.57-1.07 6.8 6.8 0 0 1 3.076 0 12 12 0 0 1-.57 1.07m-2.63 1.038q.302-.07.62-.14.29-.064.592-.103a13 13 0 0 1 .57-1.167 7 7 0 0 0-.901.053 13 13 0 0 0-.88 1.227m-2.085 1.43a8 8 0 0 1 .445.08q.324.06.67.126a13 13 0 0 1 .57-1.169 12.5 12.5 0 0 0-.568-1.165 8 8 0 0 0-2.123 1.635m7.728 0a8 8 0 0 0-2.123-1.635 12.5 12.5 0 0 0-.57 1.165q.331.584.571 1.17.346-.067.67-.127a8 8 0 0 1 .445-.08m-5.081-3.166.013-.06a7 7 0 0 0-4.04 2.418c.674-.337 1.618-.737 2.806-.983a13 13 0 0 1 1.221-1.375m1.941-1.375c1.188.246 2.132.646 2.806.983a7 7 0 0 0-4.04-2.418l.013.06a13 13 0 0 1 1.221 1.375"/>
</svg>
